<svg width="64" height="64" viewBox="0 0 64 64" fill="none" xmlns="http://www.w3.org/2000/svg">
<rect width="64" height="64" fill="#80F3FF"/>
<path d="M45.605 21.845C43.19 21.605 40.775 21.425 38.345 21.29V21.275L38.015 19.325C37.79 17.945 37.46 15.875 33.95 15.875H30.02C26.525 15.875 26.195 17.855 25.955 19.31L25.64 21.23C24.245 21.32 22.85 21.41 21.455 21.545L18.395 21.845C17.765 21.905 17.315 22.46 17.375 23.075C17.435 23.69 17.975 24.14 18.605 24.08L21.665 23.78C29.525 23 37.445 23.3 45.395 24.095C45.44 24.095 45.47 24.095 45.515 24.095C46.085 24.095 46.58 23.66 46.64 23.075C46.685 22.46 46.235 21.905 45.605 21.845Z" fill="#0045F6"/>
<path opacity="0.3991" d="M42.845 26.21C42.485 25.835 41.99 25.625 41.48 25.625H22.52C22.01 25.625 21.5 25.835 21.155 26.21C20.81 26.585 20.615 27.095 20.645 27.62L21.575 43.01C21.74 45.29 21.95 48.14 27.185 48.14H36.815C42.05 48.14 42.26 45.305 42.425 43.01L43.355 27.635C43.385 27.095 43.19 26.585 42.845 26.21Z" fill="#0045F6"/>
<path fill-rule="evenodd" clip-rule="evenodd" d="M28.37 39.5C28.37 38.8787 28.8737 38.375 29.495 38.375H34.49C35.1113 38.375 35.615 38.8787 35.615 39.5C35.615 40.1213 35.1113 40.625 34.49 40.625H29.495C28.8737 40.625 28.37 40.1213 28.37 39.5Z" fill="#0045F6"/>
<path fill-rule="evenodd" clip-rule="evenodd" d="M27.125 33.5C27.125 32.8787 27.6287 32.375 28.25 32.375H35.75C36.3713 32.375 36.875 32.8787 36.875 33.5C36.875 34.1213 36.3713 34.625 35.75 34.625H28.25C27.6287 34.625 27.125 34.1213 27.125 33.5Z" fill="#0045F6"/>
</svg>
