<svg width="64" height="64" viewBox="0 0 64 64" fill="none" xmlns="http://www.w3.org/2000/svg">
<rect width="64" height="64" fill="#80F3FF"/>
<path opacity="0.4" d="M45.5609 24.785L32.0009 32.63L18.4409 24.785C19.0409 23.675 19.9109 22.7 20.8859 22.16L28.8959 17.72C30.6059 16.76 33.3959 16.76 35.1059 17.72L43.1159 22.16C44.0909 22.7 44.9609 23.675 45.5609 24.785Z" fill="#0045F6"/>
<path opacity="0.6" d="M32.0009 32.63V47C30.8759 47 29.7509 46.76 28.8959 46.28L20.8859 41.84C19.0709 40.835 17.5859 38.315 17.5859 36.245V27.755C17.5859 26.795 17.9159 25.745 18.4409 24.785L32.0009 32.63Z" fill="#0045F6"/>
<path d="M46.416 27.755V36.245C46.416 38.315 44.931 40.835 43.116 41.84L35.106 46.28C34.251 46.76 33.126 47 32.001 47V32.63L45.561 24.785C46.086 25.745 46.416 26.795 46.416 27.755Z" fill="#0045F6"/>
</svg>
