<svg width="64" height="64" viewBox="0 0 64 64" fill="none" xmlns="http://www.w3.org/2000/svg">
<rect width="64" height="64" fill="#0045F6"/>
<path d="M45.6351 24.47C44.3601 23.06 42.2301 22.355 39.1401 22.355H38.7801V22.295C38.7801 19.775 38.7801 16.655 33.1401 16.655H30.8601C25.2201 16.655 25.2201 19.79 25.2201 22.295V22.37H24.8601C21.7551 22.37 19.6401 23.075 18.3651 24.485C16.8801 26.135 16.9251 28.355 17.0751 29.87L17.0901 29.975L17.2401 31.55C17.2551 31.565 17.2851 31.595 17.3151 31.61C17.8101 31.94 18.3201 32.27 18.8601 32.57C19.0701 32.705 19.2951 32.825 19.5201 32.945C22.0851 34.355 24.9051 35.3 27.7701 35.765C27.9051 37.175 28.5201 38.825 31.8051 38.825C35.0901 38.825 35.7351 37.19 35.8401 35.735C38.9001 35.24 41.8551 34.175 44.5251 32.615C44.6151 32.57 44.6751 32.525 44.7501 32.48C45.4401 32.09 46.0851 31.67 46.7151 31.205C46.7451 31.19 46.7751 31.16 46.7901 31.13L46.8501 30.59L46.9251 29.885C46.9401 29.795 46.9401 29.72 46.9551 29.615C47.0751 28.1 47.0451 26.03 45.6351 24.47ZM33.6351 34.745C33.6351 36.335 33.6351 36.575 31.7901 36.575C29.9451 36.575 29.9451 36.29 29.9451 34.76V32.87H33.6351V34.745ZM27.3651 22.355V22.295C27.3651 19.745 27.3651 18.8 30.8601 18.8H33.1401C36.6351 18.8 36.6351 19.76 36.6351 22.295V22.37H27.3651V22.355Z" fill="#C0FCFF"/>
<path opacity="0.4" d="M44.75 32.45C44.675 32.495 44.6 32.54 44.525 32.585C41.855 34.145 38.9 35.195 35.84 35.705C35.72 37.145 35.09 38.795 31.805 38.795C28.52 38.795 27.89 37.16 27.77 35.735C24.905 35.285 22.085 34.34 19.52 32.915C19.295 32.795 19.07 32.675 18.86 32.54C18.32 32.24 17.81 31.91 17.315 31.58C17.285 31.565 17.255 31.535 17.24 31.52L18.155 41.285C18.47 44.27 19.7 47.345 26.3 47.345H37.73C44.33 47.345 45.56 44.27 45.875 41.27L46.82 31.1C46.805 31.13 46.775 31.16 46.745 31.175C46.1 31.64 45.44 32.075 44.75 32.45Z" fill="#C0FCFF"/>
</svg>
