<svg width="64" height="64" viewBox="0 0 64 64" fill="none" xmlns="http://www.w3.org/2000/svg">
<rect width="64" height="64" fill="#0045F6"/>
<path d="M47 23V26.63C47 29 45.5 30.5 43.13 30.5H38V20.015C38 18.35 39.365 17 41.03 17C42.665 17.015 44.165 17.675 45.245 18.755C46.325 19.85 47 21.35 47 23Z" fill="#80F3FF"/>
<path opacity="0.4" d="M17 24.5V45.5C17 46.745 18.41 47.45 19.4 46.7L21.965 44.78C22.565 44.33 23.405 44.39 23.945 44.93L26.435 47.435C27.02 48.02 27.98 48.02 28.565 47.435L31.085 44.915C31.61 44.39 32.45 44.33 33.035 44.78L35.6 46.7C36.59 47.435 38 46.73 38 45.5V20C38 18.35 39.35 17 41 17H24.5H23C18.5 17 17 19.685 17 23V24.5Z" fill="#80F3FF"/>
<path d="M32 28.625H23C22.385 28.625 21.875 28.115 21.875 27.5C21.875 26.885 22.385 26.375 23 26.375H32C32.615 26.375 33.125 26.885 33.125 27.5C33.125 28.115 32.615 28.625 32 28.625Z" fill="#80F3FF"/>
<path d="M30.875 34.625H24.125C23.51 34.625 23 34.115 23 33.5C23 32.885 23.51 32.375 24.125 32.375H30.875C31.49 32.375 32 32.885 32 33.5C32 34.115 31.49 34.625 30.875 34.625Z" fill="#80F3FF"/>
</svg>
